<?xml version="1.0" encoding="utf-8"?>
<!-- Generator: Adobe Illustrator 27.0.0, SVG Export Plug-In . SVG Version: 6.00 Build 0)  -->
<svg version="1.1" id="Layer_1" xmlns="http://www.w3.org/2000/svg" xmlns:xlink="http://www.w3.org/1999/xlink" x="0px" y="0px"
	 viewBox="0 0 512 512" style="enable-background:new 0 0 512 512;" xml:space="preserve">
<style type="text/css">
	.st0{fill:#00B625;}
	.st1{fill:#163D22;}
</style>
<g id="XMLID_1_">
	<path id="XMLID_5_" class="st0" d="M-0.03,206.05c37.18,0,74.22,0,111.39,0c0,33.25,0,66.5,0,99.89c-37.04,0-74.22,0-111.39,0
		C-0.03,272.7-0.03,239.45-0.03,206.05z M60.44,275.5v-38.3H46.97v47.56c0,0,22.31,0.42,32.69,0c9.4-0.28,15.57-5.75,17.96-14.59
		c2.53-9.68,2.67-19.36,0.42-29.04c-1.54-6.31-5.19-11.5-11.78-13.61c-3.23-0.98-6.59-1.54-9.96-1.54c-20.9-0.14-64.96,0-64.96,0
		v8.7c0,0,17.4,0,19.08,0c0,0.98,0,1.54,0,2.1c0,10.94,0,47.98,0,47.98h13.33v-50.09c0,0,19.92,0,28.9,0
		c6.45,0,9.82,2.67,11.36,8.98c1.54,5.75,1.4,11.78,0.84,17.54c-0.28,3.09-1.26,6.17-2.1,9.26c-1.12,2.81-3.37,4.91-6.45,5.33
		C70.26,275.5,60.44,275.5,60.44,275.5L60.44,275.5z"/>
	<path id="XMLID_6_" class="st1" d="M191.48,266.8c0-10.1,0-20.06,0-30.16c4.63,0,9.12,0,13.75,0c0,1.54,0,2.95,0,4.49
		c2.39-3.79,5.89-5.33,10.1-5.33c4.07,0,7.86,0.84,9.96,4.91c2.81-4.35,7.01-5.19,11.78-4.91c5.75,0.42,8.7,3.23,8.84,9.12
		c0.14,6.17,0.14,12.35,0.14,18.52c0,1.12,0,2.1,0,3.37c-4.91,0-9.68,0-14.73,0c0-0.56,0-1.26,0-1.82c0-5.19,0-10.24,0-15.57
		c0-0.56,0-1.12,0-1.54c-0.14-1.96-1.12-2.81-2.67-2.81c-1.54,0.14-2.39,0.98-2.39,2.95c0,5.61,0,10.94,0,16.55c0,0.7,0,1.4,0,2.1
		c-4.91,0-9.68,0-14.73,0c0-0.56,0-1.26,0-1.82c0-5.05,0-9.96,0-15.01c0-0.84,0-1.82-0.14-2.53c-0.14-1.54-0.98-2.24-2.39-2.24
		s-2.24,0.84-2.53,2.24c-0.14,0.84-0.14,1.68-0.14,2.39c0,5.61,0,11.22,0,17.12C201.16,266.8,196.25,266.8,191.48,266.8z"/>
	<path id="XMLID_9_" class="st1" d="M136.9,266.94c1.82-4.91,3.37-9.54,5.05-14.03c2.95-8.56,5.89-16.98,8.98-25.39
		c0.42-1.12,0.84-1.54,1.96-1.54c6.59,0.14,13.47,0,20.2,0c4.91,13.61,9.68,27.08,14.59,40.83c-1.82,0-3.09,0-4.63,0
		c-3.51,0-6.87,0-10.38,0c-1.12,0-1.68-0.28-1.96-1.4c-0.56-2.1-1.26-4.35-1.96-6.31c-0.14-0.56-0.98-1.12-1.54-1.12
		c-3.65-0.14-7.3,0-10.94-0.14c-0.98,0-1.4,0.28-1.54,1.26c-0.56,2.1-1.26,4.35-1.96,6.45c-0.14,0.42-0.7,1.12-1.12,1.12
		C146.86,266.94,141.95,266.94,136.9,266.94z M157.24,248.14c3.09,0,5.89,0,9.12,0c-1.54-4.49-2.81-8.7-4.35-13.05
		c-0.14,0-0.28,0-0.42,0C160.19,239.3,158.79,243.65,157.24,248.14z"/>
	<path id="XMLID_12_" class="st1" d="M473.33,266.94c-4.49,0-8.98,0-13.61,0c0-1.68,0-3.23,0-4.91c-0.28,0.14-0.42,0.14-0.56,0.14
		c-2.1,4.49-5.89,5.75-10.52,5.61c-4.77-0.28-8.42-2.39-10.38-6.73c-2.53-5.75-2.67-11.64-0.56-17.54
		c3.23-9.26,16.13-9.96,20.9-3.09c0-5.75,0-11.36,0-17.26c5.05,0,9.68,0,14.73,0C473.33,237.62,473.33,252.21,473.33,266.94z
		 M459.44,251.37c-0.28-1.54-0.56-3.09-0.98-4.63c-0.42-1.4-1.68-1.96-3.09-1.96s-2.39,0.7-2.95,1.96c-1.12,2.95-1.12,6.03,0,9.12
		c0.56,1.4,1.68,1.96,3.09,1.96c1.54,0,2.53-0.84,2.95-2.1C459.02,254.32,459.16,252.91,459.44,251.37z"/>
	<path id="XMLID_15_" class="st1" d="M417.91,247.44c-0.28-2.1-1.4-3.37-3.93-3.79c-4.21-0.84-8.14-0.14-12.07,1.54
		c-0.56,0.14-0.98,0.42-1.54,0.56c-0.14,0-0.28,0-0.42-0.14c0-2.39,0-4.91,0-7.3c0-0.42,0.56-0.98,0.98-1.12
		c7.44-1.96,14.87-2.24,22.17-0.14c5.47,1.54,8.14,5.19,8.28,10.8c0.14,6.17,0,12.63,0,18.94c-4.63,0-9.12,0-13.61,0
		c0-1.4,0-2.53,0-3.79c-0.28,0-0.42,0-0.42,0c-3.65,4.77-8.7,5.33-14.03,3.93c-3.51-0.84-6.17-2.95-6.59-6.87
		c-0.56-4.35,0.56-8,4.63-10.38c2.81-1.68,5.89-2.1,9.26-2.24C413,247.44,415.39,247.44,417.91,247.44L417.91,247.44z
		 M417.91,253.33c-2.1,0.42-4.35,0.56-6.17,1.12c-1.54,0.42-1.96,1.82-1.82,3.37c0.28,1.54,1.26,1.96,2.53,2.24
		C416.09,260.35,418.33,257.82,417.91,253.33z"/>
	<path id="XMLID_18_" class="st1" d="M284.91,255.16c-7.16,0-13.75,0-20.48,0c-0.14,2.1,0.98,3.51,3.23,4.21
		c3.79,1.12,7.58,0.7,11.22-0.14c1.12-0.28,1.96-0.56,3.37-0.98c0,2.39,0,4.77,0,7.16c0,0.28-0.56,0.7-0.84,0.84
		c-6.87,1.68-13.89,2.24-20.9,0.42c-6.59-1.96-10.38-6.73-10.8-13.61c-0.14-1.54-0.14-3.09,0.14-4.63c0.7-5.47,3.65-9.26,8.84-11.08
		c4.63-1.68,9.54-1.96,14.17-1.12c5.61,0.98,9.26,4.35,10.52,9.68C284.35,248.84,284.49,251.93,284.91,255.16z M271.86,248.7
		c-0.14-1.96-0.14-4.07-1.96-5.47c-1.26-0.98-2.53-0.84-3.79,0c-1.82,1.4-1.96,3.23-1.96,5.47
		C266.67,248.7,269.2,248.7,271.86,248.7z"/>
	<path id="XMLID_21_" class="st1" d="M511.91,255.02c-6.73,0-13.47,0-20.06,0c-0.14,2.1,1.12,3.93,3.65,4.21
		c2.67,0.42,5.47,0.42,8.14,0.28c1.96-0.14,3.93-0.84,6.03-1.26c0,2.39,0,4.91,0,7.58c-7.72,1.68-15.57,2.81-23.29,0
		c-5.75-1.96-8.56-6.45-9.12-12.49c-0.14-1.96-0.14-4.21,0.28-6.17c0.7-4.63,3.23-7.86,7.58-9.68c5.47-2.24,11.08-2.67,16.98-1.26
		c5.75,1.54,9.26,6.17,9.82,13.33C512.05,251.37,511.91,253.19,511.91,255.02z M491.57,248.56c2.67,0,5.19,0,7.72,0
		c-0.14-2.1,0-4.49-2.1-5.47c-0.98-0.56-2.67-0.42-3.65,0.14C491.57,244.36,491.43,246.46,491.57,248.56z"/>
	<path id="XMLID_22_" class="st1" d="M358.71,236.5c2.39,0,4.49,0,6.59,0c0,2.95,0,5.75,0,8.7c-2.1,0-4.35,0-6.45,0
		c0,3.51-0.14,6.59,0,9.82c0.14,1.96,1.54,2.81,3.37,2.81c0.98,0,1.96-0.28,3.09-0.28c0,2.67,0,5.33,0,8c0,0.28-0.42,0.84-0.84,0.84
		c-4.07,1.26-8.14,1.82-12.35,1.12c-4.63-0.7-7.44-3.51-8-8.28c-0.42-3.79-0.28-7.72-0.28-11.5c0-0.7,0-1.54,0-2.39
		c-1.82,0-3.37,0-5.19,0c0-2.95,0-5.75,0-8.7c1.68,0,3.23,0,5.19,0c0-2.1,0-4.07,0-5.89c0-0.56,0.56-1.4,0.98-1.54
		c4.21-1.4,8.42-2.53,12.63-3.93c0.28-0.14,0.7-0.14,1.26-0.28C358.71,228.78,358.71,232.43,358.71,236.5L358.71,236.5z"/>
	<path id="XMLID_23_" class="st1" d="M314.23,235.94c0,0.42,0.14,0.7,0.14,1.12c0,3.65,0,7.3,0,11.08c-0.7-0.14-1.12-0.14-1.68-0.28
		c-5.19-0.7-9.26,2.67-9.4,8c0,3.09,0,6.03,0,9.26c0,0.56,0,1.12,0,1.82c-5.05,0-9.68,0-14.59,0c0-9.96,0-20.06,0-30.16
		c4.49,0,9.12,0,13.61,0c0,1.96,0,4.07,0,6.03C305.11,238.04,308.34,234.82,314.23,235.94L314.23,235.94z"/>
	<path id="XMLID_24_" class="st1" d="M384.38,266.8c-5.05,0-9.68,0-14.59,0c0-10.1,0-20.2,0-30.3c4.49,0,8.98,0,13.61,0
		c0,1.96,0,4.07,0,6.03c0.14,0.14,0.28,0.14,0.28,0.28c2.24-4.77,5.61-8.14,11.5-6.87c0,4.07,0,8,0,12.07
		c-0.56-0.14-1.12-0.14-1.54-0.28c-5.19-0.7-9.26,2.81-9.26,8c0,3.09,0,6.31,0,9.54C384.38,265.82,384.38,266.24,384.38,266.8
		L384.38,266.8z"/>
	<path id="XMLID_25_" class="st1" d="M334.72,266.8c-4.91,0-9.68,0-14.45,0c0-10.1,0-20.2,0-30.3c4.91,0,9.68,0,14.45,0
		C334.72,246.6,334.72,256.7,334.72,266.8z"/>
	<path id="XMLID_26_" class="st1" d="M319.99,232.99c0-3.23,0-6.45,0-9.82c4.77,0,9.68,0,14.45,0c0,3.23,0,6.45,0,9.82
		C329.81,232.99,325.04,232.99,319.99,232.99z"/>
</g>
</svg>
