<?xml version="1.0" encoding="utf-8"?>
<!-- Generator: Adobe Illustrator 24.3.0, SVG Export Plug-In . SVG Version: 6.00 Build 0)  -->
<svg version="1.0" id="katman_1" xmlns="http://www.w3.org/2000/svg" xmlns:xlink="http://www.w3.org/1999/xlink" x="0px" y="0px"
	 viewBox="0 0 841.89 595.28" style="enable-background:new 0 0 841.89 595.28;" xml:space="preserve">
<style type="text/css">
	.st0{fill:#C62346;}
	.st1{fill-rule:evenodd;clip-rule:evenodd;fill:#FFFFFF;}
</style>
<rect x="180.47" y="56.36" class="st0" width="481.89" height="481.89"/>
<path class="st1" d="M349.04,230.5c-4.7,0-6.27,1.8-8.21,7.01l-16.29,43.55h-10.26l-13.02-31.61l-12.43,31.61h-10.62l-17-42.85
	c-1.94-4.93-4.81-7.71-9.04-7.71h-1.34v-6.39h28.97v6.39h-2.8c-3.24,0-4.69,0.86-4.58,2.66c0,0.36-0.12,0.98,0.24,1.8
	c0,0,6.63,15.63,11.87,31.06c0.55,0.08,0.79,0.08,0.79,0.08l11.36-28.47c-0.47-4.7-2.05-7.13-6.98-7.13h-3.86v-6.39h30.5v6.39h-4.81
	c-2.88,0-3.99,0.63-3.99,2.31c0,0.7,0.12,1.56,0.47,2.39c0,0,6.87,16.56,11.88,30.98c0.67,0,0.67,0.04,0.67,0.04l11.01-28.83
	c0.71-1.92,0.71-3.37,0.71-4.35c0-1.8-1.58-2.54-4.81-2.54h-3.99v-6.39h27.74v6.39H349.04z M346.59,281.06v-6.38l3.36-0.12
	c4.97,0,7.74-0.47,7.74-5.21v-33.64c0-4.7-2.77-5.21-7.74-5.21h-3.36v-6.39h61.52v22.09h-6.51c-0.35-13.27-3.47-15.36-15.07-15.36
	h-15.94v16.92h4.1c7.26,0,8.21-2.42,8.81-11h6.55v28.87h-6.67c-0.48-9.79-1.42-11.13-8.57-11.13h-4.22v19.82h18.35
	c10.38,0,12.86-4.9,13.77-16.22h6.51v22.95H346.59z M414.23,281.06v-6.38h3.27c4.94,0,7.11-0.47,7.11-5.33l-0.12-33.52
	c0-4.82-2.88-5.33-7.73-5.33h-3v-6.39h34.37v6.39l-4.1,0.12c-5.52,0-6.51,0.51-6.51,5.21v38.5h13.9c6.74,0,10.73-0.87,12.54-4.23
	c1.69-3.02,2.4-6.43,2.4-11.99h6.63v22.95H414.23z M478,281.06v-6.38h0.87c4.97,0,7.14-0.47,7.14-5.33l-0.12-33.52
	c0-4.82-2.33-5.33-7.14-5.33h-3.63v-6.39h34.41v6.39l-4.1,0.12c-5.57,0-6.51,0.51-6.51,5.21v38.5h13.85
	c6.78,0,10.76-0.87,12.58-4.23c1.66-3.02,2.41-6.43,2.41-11.99h6.63v22.95H478z"/>
<path class="st1" d="M592.7,264.42c0,13.04-10.26,17.74-25.45,17.74c-9.15,0-17.96-5.21-19.9-7.01l-1.93,5.95h-5.8v-22.91h6.63
	c1.82,10.93,9.15,15.66,19.61,16.14c9,0.39,15.39-2.01,16.1-8.23c0.83-7.21-7.1-6.74-13.73-7.95l-9.79-1.8
	c-14.6-2.54-19.29-6.78-19.65-16.29c-0.39-10.38,9.04-17.15,21.71-17.27c6.15,0,14.12,0.98,20.27,5.92l2.88-4.7h5.05v19.89h-6.39
	c-1.39-11.04-12.27-14.41-21.58-14.18c-6.76,0.23-11.22,4.11-11.22,8.7c0,4.27,4.22,4.81,9.59,5.75l11.95,2.08
	c12.2,2.03,21.63,4.54,21.63,18.05V264.42z"/>
<path class="st1" d="M319.45,331.54c0-4.39-0.71-8.27-2.29-11.4c-1.93-3.37-5.88-3.88-12.67-3.88h-14.24v17.04h4.5
	c7.22,0,8.33-1.33,8.33-10.14h5.29v28.47l-5.41-0.12c-0.12-9.52-1.11-11.48-8.21-11.48h-4.5v14.84c0,4.74,0.75,5.21,5.68,5.21h6.63
	v6.39h-35.12v-6.39l3.28-0.11c4.93,0,6.63-0.47,6.63-5.21v-33.64c0-4.7-1.7-5.21-6.63-5.21h-3.28v-6.39H326v22.01H319.45z"/>
<path class="st1" d="M350.07,319.79l-8.56,21.85h17.24L350.07,319.79z M353.19,366.48v-6.39h6.16c3.28,0,4.85-0.35,4.85-2.3
	c0-0.71-0.4-1.68-0.87-2.75l-2.41-6.65H338.7l-2.88,7.13c-0.48,1.1-0.71,1.92-0.71,2.66c0,1.8,1.54,1.91,4.58,1.91h5.92v6.39H315.9
	v-6.39h2.6c4.46,0,5.8-1.56,7.5-5.56l19.06-44.99h13.97l18.23,44.99c1.66,4.35,3.51,5.56,6.75,5.56h2.76v6.39H353.19z"/>
<path class="st1" d="M431,324.61c0-6.62-3.86-8.58-11.96-8.58h-12.19v17.27l12.43-0.12c7.97,0,11.72-2.54,11.72-8.45V324.61z
	 M451.12,353.2c0,10.37-4.81,14.49-11.68,14.49c-7.85,0-12.93-2.15-13.29-10.02l-0.24-6.62c-0.36-9.55-3.4-11.47-13.26-11.47h-5.8
	v15.31c0,4.74,0.71,5.21,5.68,5.21h5.17v6.39h-34.76v-6.39h5.05c3.28,0,5.96-1.18,5.96-5.32v-33.64c0-4.7-0.75-5.21-5.68-5.21h-4.7
	v-6.39h39.18c14.64,0,21.39,4.35,21.39,13.52c0,8.22-6.39,13.27-17.27,14.72c10.14,2.43,11.48,6.03,12.07,13.75
	c0.12,0.75,0,2.31,0,3.52c0.24,3.37,1.58,4.94,3.27,4.82c3.48-0.23,3.75-2.78,3.48-9.56h5.44c0.12,0.98,0.12,1.96,0.12,2.9H451.12z"
	/>
<path class="st1" d="M501.87,327.78c-2.73-8.54-8.44-12.53-17.87-12.53c-9.28,0-16.66,7.6-16.54,22.09
	c0,14.73,5.92,22.68,16.54,22.79c7.73,0,14.6-3.83,14.6-10.38v-3.13c0-3.84-0.95-3.84-6.39-3.84h-2.84v-6.54h26.48v6.54h-2.17
	c-4.1,0-4.73-0.39-4.73,4.47v19.07h-4.66l-3-4.73c-5.21,4.11-12.66,6.03-19.34,6.03c-7.8,0-14.48-2.74-19.77-8.07
	c-5.56-5.68-8.8-13.27-8.68-22.21c0-8.81,2.88-15.82,8.56-21.46c4.93-4.85,12.43-7.59,20.17-7.48c6.39,0,13.85,1.68,18.07,6.16
	l2.92-5.92h4.54v19.11L501.87,327.78z"/>
<path class="st1" d="M573.14,338.01c0-14.96-8.17-22.76-19.39-22.76c-11.08,0-19.53,7.8-19.53,22.76c0,14.92,8.44,22.91,19.53,22.91
	c11.05,0,19.27-7.99,19.27-22.91H573.14z M553.99,367.54c-18.93,0-33.61-11.83-33.61-29.77c0-17.86,14.68-29.53,33.49-29.53
	c18.91,0,33.24,11.67,33.24,29.65C587.1,355.71,572.78,367.54,553.99,367.54z"/>
</svg>
