<?xml version="1.0" encoding="utf-8"?>
<!-- Generator: Adobe Illustrator 26.0.3, SVG Export Plug-In . SVG Version: 6.00 Build 0)  -->
<svg version="1.0" id="Layer_1" xmlns="http://www.w3.org/2000/svg" xmlns:xlink="http://www.w3.org/1999/xlink" x="0px" y="0px"
	 viewBox="0 0 238 172" style="enable-background:new 0 0 238 172;" xml:space="preserve">
<style type="text/css">
	.st0{fill:#6D1ED4;}
	.st1{fill:none;}
</style>
<path class="st0" d="M46.8,59.9l-15.2-0.2v10.2H57l-26.5,33.8v8.6h16.3v9.9h9.8v-9.9h16.7c0.2-0.9-0.1-1.8-0.7-2.4
	c-1.5-1.7-2.7-3.5-3.7-5.5c-0.5-1-0.9-2.1-1-2.2c-3.3-0.2-22.2-0.1-22.1-0.2l26.4-34.1v-8H56.6V49.8h-9.8V59.9z M117.6,55.2
	c-0.2,0.1-0.3,5.2-0.3,24.8c0,26.4,0,25.9,1.2,28.2c1.5,2.3,3.8,4,6.5,4.6c2.7,0.4,5.3,0.4,8,0c2.3-0.5,2.8-1.2,1.9-3
	c-0.7-1.6-1.3-3.2-1.6-4.9c-0.3-1.6-0.6-1.9-2.6-1.9c-0.6,0-1.3,0-1.9-0.1c-0.9-0.6-0.9-0.8-0.9-24.4c0-15.2,0-22.9-0.2-23.1
	s-0.5-0.4-5-0.4C119.9,54.9,117.7,55,117.6,55.2L117.6,55.2z M139,55.2c-0.3,0.2-0.4,3.2-0.4,24.5c0,23,0,24.4,0.5,26
	c0.7,3.1,3,5.6,6,6.5c1.4,0.6,3,0.8,4.5,0.7c2.4,0.3,4.9-0.1,7.1-1.1c1.8-0.9,1.8-1.5,0.3-3.7c-0.6-0.9-1.5-2.4-2.1-3.4l-0.9-1.8
	h-1.7c-2.1,0-2.3-0.2-2.7-1.1c-0.3-0.7-0.4-4.2-0.4-23.5c0-15.2,0-22.9-0.2-23.1s-0.5-0.4-5-0.4C142.4,54.8,140.7,54.9,139,55.2
	L139,55.2z"/>
<path class="st0" d="M88.3,69.7l-1.9,0.5c-6.2,1.5-11.2,5.9-13.5,11.8c-1.2,3-1.8,6.2-1.7,9.4c-0.2,4.5,1,8.9,3.4,12.7
	c2.8,4.1,7,7.1,11.8,8.2c2.1,0.5,4.3,0.7,6.5,0.5c2.2,0.2,4.3,0,6.4-0.5c3.9-1,7.5-3,10.4-5.7c1.8-1.7,1.8-2.1,0-3.5
	c-1.1-0.9-2.1-1.8-3-2.8c-1.1-1.2-1.8-1.8-2.2-1.8c-0.7,0.2-1.3,0.6-1.8,1.2c-2.7,2.3-6.2,3.5-9.8,3.3c-3.1,0.3-6.2-0.8-8.4-3.1
	c-1.1-1.3-1.8-2.9-2.2-4.6l-0.1-0.9h14.6c8,0,14.7,0,14.8-0.2c0.8-0.5,0.9-3.8,0.4-7.6c-1.3-8.8-6.6-14.8-14.9-16.7
	c-1.7-0.4-3.5-0.5-5.3-0.4c-1.2-0.1-2.4,0-3.6,0.1V69.7z M94.5,78.7c1.8,0.4,3.5,1.3,4.8,2.7c1,1.2,1.7,2.5,2.1,4l0.2,0.8H82.4
	l0.2-0.8c0.9-3.3,3.5-5.8,6.8-6.6C91,78.4,92.7,78.4,94.5,78.7L94.5,78.7z M173.1,69.9c-8.1,1.6-14.3,8.1-15.6,16.3
	c-1,5.1-0.5,10.4,1.6,15.2c2.7,5.8,8,10,14.4,11.1c2.1,0.4,4.2,0.6,6.3,0.4c1.9,0,3.8-0.2,5.7-0.6c3.8-1,7.3-2.9,10.2-5.5
	c2.1-1.9,2.1-2.1-0.1-3.9c-1.1-0.9-2.2-1.9-3.1-2.9c-1.5-1.8-1.9-1.8-3.6-0.2c-2.7,2.4-6.2,3.6-9.8,3.3c-5.9,0-9.4-2.6-10.5-7.6
	l-0.2-0.6h29.6c1-0.7,0.6-8.4-0.6-11.9c-0.4-1.1-0.9-2.1-1.4-3.1c-2.6-5.1-7.5-8.8-13.2-9.7C179.3,69.6,176.2,69.6,173.1,69.9
	L173.1,69.9z M180.4,78.7c1.6,0.4,3.1,1.1,4.4,2.2c1.2,1.3,2.1,2.9,2.6,4.7v0.6h-19l0.2-0.7C169.9,80.4,175.2,77.3,180.4,78.7
	L180.4,78.7z"/>
<g id="Oval">
	<path class="st0" d="M202.6,69.6c-2.7,0-4.9-2.2-4.9-4.9s2.2-4.9,4.9-4.9c2.7,0,4.9,2.2,4.9,4.9l0,0
		C207.5,67.4,205.3,69.6,202.6,69.6z M202.6,60.6c-2.3,0-4.1,1.8-4.1,4.1s1.8,4.1,4.1,4.1c2.3,0,4.1-1.8,4.1-4.1l0,0
		C206.7,62.4,204.9,60.6,202.6,60.6C202.6,60.6,202.6,60.6,202.6,60.6L202.6,60.6z"/>
</g>
<path id="R" class="st0" d="M201.6,64.3h1.3c0.3,0,0.5-0.1,0.7-0.3c0.2-0.2,0.2-0.4,0.2-0.7c0-0.2-0.1-0.5-0.3-0.7
	c-0.2-0.1-0.4-0.2-0.6-0.2h-1.3V64.3z M200.8,61.8h2.2c0.4,0,0.8,0.1,1.1,0.4c0.4,0.3,0.6,0.7,0.6,1.2c0,0.7-0.4,1.4-1.1,1.6
	l1.3,2.6h-1l-1.2-2.5h-1.1v2.4h-0.8L200.8,61.8z"/>
<rect x="22" y="43" class="st1" width="194" height="86"/>
</svg>
